<svg width="229" height="262" viewBox="0 0 229 262" fill="none" xmlns="http://www.w3.org/2000/svg">
<g opacity="0.5">
<path d="M58.638 83.7185C74.5102 83.7185 88.9725 93.5194 99.5006 109.557C110.025 125.589 116.557 147.779 116.557 172.326C116.557 196.873 110.025 219.063 99.5006 235.095C88.9725 251.133 74.5102 260.934 58.638 260.934C42.7658 260.934 28.3035 251.133 17.7754 235.095C7.2513 219.063 0.718577 196.873 0.718577 172.326C0.718577 147.779 7.2513 125.589 17.7754 109.557C28.3035 93.5194 42.7658 83.7185 58.638 83.7185Z" stroke="#170B06" stroke-width="1.43715"/>
<path d="M63.2357 237.549C25.6543 228.005 85.3715 131.434 63.2357 107.104" stroke="#170B06" stroke-width="1.43715"/>
</g>
<path d="M13.7188 56.8688C13.7188 50.0246 17.6864 43.7545 24.2509 39.1657C30.8131 34.5786 39.917 31.7186 50.0069 31.7186C60.0969 31.7186 69.2008 34.5786 75.763 39.1657C82.3274 43.7545 86.2951 50.0246 86.2951 56.8688C86.2951 63.7129 82.3274 69.983 75.763 74.5718C69.2008 79.1589 60.0969 82.019 50.0069 82.019C39.917 82.019 30.8131 79.1589 24.2509 74.5718C17.6864 69.983 13.7188 63.7129 13.7188 56.8688Z" stroke="#170B06" stroke-width="1.43715"/>
<path d="M77.0278 54.8404C73.0739 71.4198 33.0658 45.0749 22.9863 54.8404" stroke="#170B06" stroke-width="1.43715"/>
<g opacity="0.5">
<path d="M189.997 159.293C179.795 171.452 162.991 176.231 143.938 173.987C124.892 171.744 103.694 162.484 84.89 146.706C66.086 130.928 53.2866 111.66 47.7702 93.2927C42.2517 74.9187 44.04 57.54 54.2425 45.3812C64.4449 33.2224 81.249 28.4435 100.302 30.6875C119.348 32.9307 140.546 42.1899 159.35 57.9683C178.154 73.7467 190.953 93.0146 196.47 111.382C201.988 129.756 200.2 147.134 189.997 159.293Z" stroke="#170B06" stroke-width="1.43715"/>
<path d="M69.2012 63.9352C100.669 41.2809 136.261 149.102 169.128 147.783" stroke="#170B06" stroke-width="1.43715"/>
</g>
</svg>
