<svg width="404" height="418" viewBox="0 0 404 418" fill="none" xmlns="http://www.w3.org/2000/svg">
<circle cx="166" cy="313" r="100" fill="#D4B694" fill-opacity="0.5"/>
<g opacity="0.5">
<path d="M348.748 96.3996C370.79 122.668 375.874 159.017 366.162 196.627C356.45 234.236 331.951 273.042 294.94 304.099C257.928 335.156 215.456 352.543 176.733 355.577C138.007 358.611 103.094 347.292 81.0518 321.024C59.01 294.755 53.9261 258.407 63.6385 220.796C73.3505 183.188 97.8489 144.381 134.861 113.324C171.872 82.2678 214.344 64.8804 253.067 61.8466C291.793 58.8127 326.707 70.1312 348.748 96.3996Z" stroke="#170B06" stroke-width="1.43715"/>
<path d="M123.08 298.577C85.8459 225.041 313.128 200.824 319.345 133.891" stroke="#170B06" stroke-width="1.43715"/>
</g>
<path d="M86.4321 357.23C80.758 361.057 73.3412 361.274 65.8661 358.398C58.3937 355.523 50.9318 349.574 45.2896 341.209C39.6473 332.844 36.9276 323.698 37.061 315.692C37.1944 307.684 40.1739 300.889 45.848 297.061C51.522 293.234 58.9389 293.017 66.4139 295.893C73.8864 298.769 81.3483 304.717 86.9905 313.082C92.6328 321.447 95.3525 330.594 95.2191 338.599C95.0857 346.607 92.1062 353.403 86.4321 357.23Z" stroke="#170B06" stroke-width="1.43715"/>
<path d="M49.3485 305.879C65.3045 299.886 65.8359 347.786 79.5682 350.681" stroke="#170B06" stroke-width="1.43715"/>
<path d="M154.119 325.8C158.959 330.64 160.587 337.879 159.19 345.765C157.793 353.649 153.378 362.109 146.244 369.244C139.109 376.378 130.649 380.793 122.765 382.19C114.879 383.587 107.64 381.959 102.8 377.119C97.9605 372.28 96.3325 365.041 97.7295 357.154C99.1261 349.27 103.541 340.811 110.676 333.676C117.811 326.541 126.27 322.126 134.154 320.73C142.041 319.332 149.28 320.961 154.119 325.8Z" stroke="#170B06" stroke-width="1.43715"/>
<path d="M110.787 372C101.86 357.481 148.778 347.82 149.001 333.787" stroke="#170B06" stroke-width="1.43715"/>
</svg>
