<svg width="214" height="194" viewBox="0 0 214 194" fill="none" xmlns="http://www.w3.org/2000/svg">
<path d="M162.46 76.8001C155.67 75.9376 149.95 71.2114 146.225 64.1209C142.502 57.033 140.812 47.6413 142.083 37.6317C143.355 27.6222 147.339 18.9513 152.717 13.0196C158.096 7.08573 164.816 3.93988 171.606 4.8024C178.396 5.66492 184.116 10.3911 187.841 17.4816C191.564 24.5695 193.254 33.9612 191.983 43.9707C190.711 53.9803 186.726 62.6512 181.349 68.5829C175.97 74.5168 169.249 77.6626 162.46 76.8001Z" stroke="#170B06" stroke-width="1.43715"/>
<path d="M168.426 13.7403C184.375 19.7521 153.198 56.1212 161.616 67.351" stroke="#170B06" stroke-width="1.43715"/>
<g opacity="0.5">
<path d="M186.042 61.2537C193.189 75.426 190.949 92.7523 181.369 109.374C171.793 125.989 154.921 141.814 133.003 152.866C111.085 163.919 88.3303 168.077 69.2769 165.898C50.2162 163.719 34.9533 155.219 27.8067 141.046C20.6602 126.874 22.8996 109.548 32.4795 92.9259C42.0558 76.3105 58.9279 60.4862 80.8459 49.4338C102.764 38.3814 125.519 34.2232 144.572 36.4017C163.633 38.581 178.896 47.0815 186.042 61.2537Z" stroke="#170B06" stroke-width="1.43715"/>
<path d="M50.7577 134.622C42.3581 96.7687 155.474 106.608 167.232 75.8885" stroke="#170B06" stroke-width="1.43715"/>
</g>
</svg>
