<svg width="82" height="124" viewBox="0 0 82 124" fill="none" xmlns="http://www.w3.org/2000/svg">
<g opacity="0.5">
<path d="M40.7401 123.28C51.737 123.28 61.7571 116.489 69.0514 105.378C76.3429 94.2702 80.869 78.896 80.869 61.8889C80.869 44.8818 76.3429 29.5076 69.0514 18.4C61.7571 7.28829 51.737 0.49786 40.7401 0.49786C29.7432 0.49786 19.7231 7.28829 12.4288 18.4C5.13728 29.5076 0.611141 44.8818 0.611141 61.8889C0.611141 78.896 5.13728 94.2702 12.4288 105.378C19.7231 116.489 29.7432 123.28 40.7401 123.28Z" fill="#9B7A54" stroke="white" stroke-width="0.995719"/>
<path d="M43.9254 16.7003C17.8875 23.3126 59.262 90.221 43.9254 107.078" stroke="white" stroke-width="0.995719"/>
</g>
</svg>
