<svg width="101" height="86" viewBox="0 0 101 86" fill="none" xmlns="http://www.w3.org/2000/svg">
<ellipse cx="59" cy="43" rx="42" ry="43" fill="#D4B694" fill-opacity="0.5"/>
<path d="M0.718536 41.8688C0.718536 35.0246 4.6862 28.7545 11.2507 24.1657C17.8128 19.5786 26.9167 16.7186 37.0067 16.7186C47.0967 16.7186 56.2006 19.5786 62.7627 24.1657C69.3272 28.7545 73.2949 35.0246 73.2949 41.8688C73.2949 48.7129 69.3272 54.983 62.7627 59.5718C56.2006 64.1589 47.0967 67.019 37.0067 67.019C26.9167 67.019 17.8128 64.1589 11.2507 59.5718C4.6862 54.983 0.718536 48.7129 0.718536 41.8688Z" stroke="#170B06" stroke-width="1.43715"/>
<path d="M64.0276 39.8404C60.0737 56.4198 20.0656 30.0749 9.98601 39.8404" stroke="#170B06" stroke-width="1.43715"/>
</svg>
