<svg width="204" height="214" viewBox="0 0 204 214" fill="none" xmlns="http://www.w3.org/2000/svg">
<path d="M129.718 158.869C129.718 152.025 133.686 145.754 140.25 141.166C146.813 136.579 155.916 133.719 166.006 133.719C176.096 133.719 185.2 136.579 191.762 141.166C198.327 145.754 202.295 152.025 202.295 158.869C202.295 165.713 198.327 171.983 191.762 176.572C185.2 181.159 176.096 184.019 166.006 184.019C155.916 184.019 146.813 181.159 140.25 176.572C133.686 171.983 129.718 165.713 129.718 158.869Z" stroke="#170B06" stroke-width="1.43715"/>
<path d="M193.027 156.84C189.073 173.42 149.065 147.075 138.986 156.84" stroke="#170B06" stroke-width="1.43715"/>
<g opacity="0.5">
<path d="M148.112 180.304C134.954 189.18 117.483 189.142 99.7869 181.733C82.0971 174.327 64.2727 159.583 50.5462 139.233C36.8198 118.883 29.8271 96.8331 29.587 77.6571C29.3469 58.4738 35.8561 42.2613 49.0148 33.3857C62.1734 24.5101 79.6438 24.5481 97.3403 31.957C115.03 39.363 132.855 54.1064 146.581 74.4567C160.307 94.807 167.3 116.856 167.54 136.033C167.78 155.216 161.271 171.428 148.112 180.304Z" stroke="#170B06" stroke-width="1.43715"/>
<path d="M58.2801 55.3442C94.7733 42.2412 99.2674 155.696 131.224 163.488" stroke="#170B06" stroke-width="1.43715"/>
</g>
</svg>
