<svg width="83" height="124" viewBox="0 0 83 124" fill="none" xmlns="http://www.w3.org/2000/svg">
<g opacity="0.5">
<path d="M41.4515 123.28C52.4484 123.28 62.4685 116.489 69.7628 105.378C77.0543 94.2702 81.5804 78.896 81.5804 61.8889C81.5804 44.8818 77.0543 29.5076 69.7628 18.4C62.4685 7.28829 52.4484 0.49786 41.4515 0.49786C30.4546 0.49786 20.4345 7.28829 13.1402 18.4C5.8487 29.5076 1.32257 44.8818 1.32257 61.8889C1.32257 78.896 5.8487 94.2702 13.1402 105.378C20.4345 116.489 30.4546 123.28 41.4515 123.28Z" fill="#D4B694" fill-opacity="0.9" stroke="white" stroke-width="0.995719"/>
<path d="M44.6368 16.7003C18.5989 23.3126 59.9734 90.221 44.6368 107.078" stroke="white" stroke-width="0.995719"/>
</g>
</svg>
