<svg width="110" height="99" viewBox="0 0 110 99" fill="none" xmlns="http://www.w3.org/2000/svg">
<ellipse cx="68" cy="43" rx="42" ry="43" fill="#D4B694" fill-opacity="0.5"/>
<path d="M62.4321 83.2299C56.758 87.0571 49.3412 87.2739 41.8661 84.3977C34.3937 81.5226 26.9318 75.5744 21.2896 67.2094C15.6473 58.8445 12.9276 49.6977 13.061 41.6923C13.1944 33.6841 16.1739 26.8886 21.848 23.0614C27.522 19.2342 34.9389 19.0173 42.4139 21.8935C49.8864 24.7687 57.3483 30.7168 62.9905 39.0818C68.6328 47.4468 71.3525 56.5936 71.2191 64.5989C71.0857 72.6071 68.1062 79.4026 62.4321 83.2299Z" stroke="#170B06" stroke-width="1.43715"/>
<path d="M25.3485 31.8787C41.3045 25.8856 41.8359 73.7857 55.5682 76.6812" stroke="#170B06" stroke-width="1.43715"/>
</svg>
