<svg width="82" height="124" viewBox="0 0 82 124" fill="none" xmlns="http://www.w3.org/2000/svg">
<g opacity="0.5">
<path d="M40.6268 123.28C51.6237 123.28 61.6438 116.489 68.9381 105.378C76.2296 94.2702 80.7557 78.896 80.7557 61.8889C80.7557 44.8818 76.2296 29.5076 68.9381 18.4C61.6438 7.28829 51.6237 0.49786 40.6268 0.49786C29.6299 0.49786 19.6098 7.28829 12.3155 18.4C5.024 29.5076 0.49786 44.8818 0.49786 61.8889C0.49786 78.896 5.024 94.2702 12.3155 105.378C19.6098 116.489 29.6299 123.28 40.6268 123.28Z" fill="#9AC98A" stroke="white" stroke-width="0.995719"/>
<path d="M43.8121 16.7003C17.7742 23.3126 59.1487 90.221 43.8121 107.078" stroke="white" stroke-width="0.995719"/>
</g>
</svg>
