<svg width="82" height="124" viewBox="0 0 82 124" fill="none" xmlns="http://www.w3.org/2000/svg">
<g opacity="0.5">
<path d="M41.0218 123.28C52.0187 123.28 62.0388 116.489 69.3331 105.378C76.6246 94.2702 81.1507 78.896 81.1507 61.8889C81.1507 44.8818 76.6246 29.5076 69.3331 18.4C62.0388 7.28829 52.0187 0.49786 41.0218 0.49786C30.0249 0.49786 20.0048 7.28829 12.7105 18.4C5.41901 29.5076 0.892879 44.8818 0.892879 61.8889C0.892879 78.896 5.41901 94.2702 12.7105 105.378C20.0048 116.489 30.0249 123.28 41.0218 123.28Z" fill="#493217" stroke="white" stroke-width="0.995719"/>
<path d="M44.2071 16.7003C18.1692 23.3126 59.5437 90.221 44.2071 107.078" stroke="white" stroke-width="0.995719"/>
</g>
</svg>
