<svg width="113" height="109" viewBox="0 0 113 109" fill="none" xmlns="http://www.w3.org/2000/svg">
<ellipse cx="71" cy="66" rx="42" ry="43" fill="#D4B694" fill-opacity="0.5"/>
<path d="M70.1193 18.8001C74.9589 23.6397 76.5869 30.8789 75.1899 38.7654C73.7934 46.6491 69.3783 55.1089 62.2436 62.2436C55.1089 69.3783 46.6491 73.7934 38.7654 75.1899C30.8789 76.587 23.6397 74.9589 18.8001 70.1193C13.9605 65.2798 12.3325 58.0406 13.7295 50.154C15.1261 42.2703 19.5411 33.8105 26.6758 26.6758C33.8105 19.5411 42.2703 15.1261 50.154 13.7295C58.0406 12.3325 65.2797 13.9606 70.1193 18.8001Z" stroke="#170B06" stroke-width="1.43715"/>
<path d="M26.7873 65.0006C17.8597 50.4814 64.7784 40.82 65.0005 26.7874" stroke="#170B06" stroke-width="1.43715"/>
</svg>
